<?xml version="1.0" encoding="UTF-8"?>
<!-- Generator: visioncortex VTracer 0.6.4 -->
<svg version="1.1" xmlns="http://www.w3.org/2000/svg" width="1024" height="1024">
<path d="M0 0 C8.19264262 5.10999226 14.97846214 12.75256859 21.6875 19.625 C27.03608218 25.07876187 32.37008848 30.43133046 38.17504883 35.39990234 C41.65385965 38.45008644 44.83737833 41.79591645 48.06640625 45.10546875 C50.91813763 47.99924039 53.82716427 50.75414686 56.90625 53.40625 C61.86762954 57.69345165 66.41140699 62.36084853 71 67.0390625 C74.21950866 70.29629978 77.46324901 73.45170806 80.9375 76.4375 C86.35165903 81.10086745 91.28263712 86.23626574 96.2890625 91.328125 C100.45551161 95.53752719 104.69982365 99.55396973 109.19140625 103.4140625 C112.68040232 106.47352773 115.85309306 109.83750495 119.09375 113.15625 C121.2216216 115.28950058 123.44184236 117.27024838 125.72705078 119.23364258 C129.72433626 122.71775919 133.52147129 126.36036245 137.2734375 130.10546875 C137.92325592 130.75195877 138.57307434 131.39844879 139.24258423 132.06452942 C140.60003349 133.41696123 141.95617331 134.77070855 143.31103516 136.12573242 C145.38555423 138.198043 147.46797553 140.26219405 149.55078125 142.32617188 C150.8754883 143.64794829 152.19972417 144.97019716 153.5234375 146.29296875 C154.14423187 146.90657761 154.76502625 147.52018646 155.40463257 148.15238953 C155.97928253 148.73011612 156.5539325 149.30784271 157.14599609 149.90307617 C157.65037201 150.40602707 158.15474792 150.90897797 158.67440796 151.4271698 C161.04559343 154.24060863 162.01627263 156.2351864 161.9375 159.9375 C160.7374274 163.85773716 159.22391981 165.49250682 156 168 C152.55447549 169.14850817 150.92103001 169.45822388 147.64453125 167.828125 C144.61861782 165.73635619 142.24161956 163.3965262 139.6875 160.75 C136.60351604 157.56246622 133.50576346 154.53458598 130.14453125 151.640625 C125.16699719 147.33630375 120.60500355 142.65588253 116 137.9609375 C112.05417823 133.96887563 108.00286017 130.19045183 103.75 126.52734375 C101.10371237 124.21774896 98.6875944 121.71215135 96.25 119.1875 C94.31109227 117.30245082 92.32988144 115.54383851 90.28125 113.78125 C85.03582022 109.2254971 80.22069715 104.27025448 75.35546875 99.31640625 C72.05826132 95.98303201 68.75319289 92.73388172 65.1875 89.6875 C59.1223127 84.46917268 53.60611784 78.6619111 47.99072266 72.97021484 C42.71593969 67.63028994 37.4322952 62.37779682 31.72070312 57.49804688 C29.17943725 55.28561676 26.85419174 52.91091925 24.5 50.5 C20.88385454 46.82923373 17.18259675 43.35457408 13.23828125 40.0390625 C11.32997805 38.30060828 9.56564335 36.52151045 7.79296875 34.6484375 C6.93324463 33.7500415 6.93324463 33.7500415 6.05615234 32.83349609 C4.90920444 31.62745034 3.77491771 30.40921369 2.65478516 29.17822266 C0.89583796 27.27001115 0.89583796 27.27001115 -2 25 C-6.03286711 25.22022209 -7.96461247 26.48287997 -10.70703125 29.3515625 C-11.37669922 30.03863281 -12.04636719 30.72570312 -12.73632812 31.43359375 C-13.42146484 32.15675781 -14.10660156 32.87992188 -14.8125 33.625 C-19.36911935 38.36039581 -23.95698266 42.89239706 -28.9440918 47.17333984 C-32.80379134 50.60265608 -36.38158667 54.319839 -40 58 C-44.89671122 62.98027284 -49.83119716 67.79867983 -55.12890625 72.3515625 C-58.0579209 74.93203052 -60.77517153 77.7072207 -63.5 80.5 C-66.8503253 83.93387456 -70.23669248 87.24469609 -73.875 90.375 C-78.30558848 94.20353722 -82.39891705 98.32421609 -86.5 102.5 C-91.24357398 107.32997788 -96.04121806 111.98052193 -101.17382812 116.39648438 C-103.7434841 118.6528347 -106.11058872 121.05301255 -108.5 123.5 C-112.16565971 127.22120001 -115.93168361 130.73684504 -119.90625 134.125 C-122.53985556 136.48345274 -125.01826218 138.9844568 -127.5 141.5 C-131.14331713 145.19287765 -134.87456565 148.68932264 -138.83203125 152.04296875 C-140.60761563 153.64579357 -142.28022806 155.27795005 -143.94921875 156.98828125 C-144.47330322 157.52461182 -144.9973877 158.06094238 -145.53735352 158.61352539 C-146.56962161 159.67754093 -147.59526341 160.74803943 -148.61303711 161.82592773 C-151.7954906 165.10648333 -154.7572046 167.28645054 -159 169 C-163.06593099 169 -164.62282124 168.30174301 -167.8125 165.75 C-170.09191226 162.88445316 -171 161.63328035 -171 158 C-168.76317112 152.02061696 -164.68542136 148.54203384 -160.0625 144.375 C-158.52197581 142.95861942 -156.98292214 141.54063781 -155.4453125 140.12109375 C-154.31077637 139.07671143 -154.31077637 139.07671143 -153.15332031 138.01123047 C-149.25537427 134.37049583 -145.53487818 130.5609674 -141.80859375 126.74609375 C-139.74628638 124.72967918 -137.69454592 122.86684423 -135.50390625 121.00390625 C-129.17176284 115.52013115 -123.38571737 109.45276378 -117.5 103.5 C-103.86997007 89.71470529 -103.86997007 89.71470529 -97.65039062 84.42773438 C-95.12763581 82.24532755 -92.83056664 79.88672487 -90.5 77.5 C-87.46952385 74.42374941 -84.42040775 71.41983949 -81.125 68.625 C-76.81370336 64.95241398 -72.87362077 60.92931549 -68.91845703 56.88134766 C-66.14438627 54.06254769 -63.31996926 51.38195835 -60.3125 48.8125 C-54.75227322 44.00782557 -49.6573248 38.72740168 -44.5 33.5 C-38.7626312 27.68467277 -33.04977811 21.9234317 -26.83203125 16.61376953 C-22.99194741 13.23117969 -19.49027569 9.48966049 -15.9375 5.81054688 C-15.35484375 5.21693359 -14.7721875 4.62332031 -14.171875 4.01171875 C-13.6572168 3.48022217 -13.14255859 2.94872559 -12.61230469 2.40112305 C-8.37095059 -1.2846933 -5.49210709 -1.33285022 0 0 Z " fill="#000000" transform="translate(516,188)"/>
<path d="M0 0 C3.375 0.875 3.375 0.875 5.375 2.875 C5.63328552 5.33518982 5.63328552 5.33518982 5.64624023 8.47045898 C5.65642685 9.64184921 5.66661346 10.81323944 5.67710876 12.02012634 C5.67924881 13.29094559 5.68138885 14.56176483 5.68359375 15.87109375 C5.70230958 17.85650232 5.72104212 19.84191091 5.74077702 21.82730961 C5.78624465 26.73511701 5.80977641 31.6430637 5.83129883 36.55102539 C5.84409263 39.30245953 5.86476282 42.0536343 5.89356995 44.8049469 C5.91992544 47.40017471 5.9337078 49.9955655 5.9339447 52.59092712 C5.94728348 53.76546951 5.96062225 54.9400119 5.97436523 56.15014648 C5.97943588 57.1855809 5.98450653 58.22101532 5.98973083 59.28782654 C6.17431708 61.89625456 6.17431708 61.89625456 7.70863342 63.70936584 C10.29393456 65.51780064 12.32017925 65.26497712 15.375 64.875 C17.67022619 61.43216072 17.64278547 60.08605494 17.69384766 56.02661133 C17.71371735 54.8255928 17.73358704 53.62457428 17.75405884 52.38716125 C17.76561005 51.09021835 17.77716125 49.79327545 17.7890625 48.45703125 C17.80777377 47.11609199 17.82734716 45.7751645 17.8477478 44.43424988 C17.89907965 40.9079991 17.93869948 37.38171013 17.97589111 33.85528564 C18.01592432 30.25564115 18.06701974 26.65615561 18.1171875 23.05664062 C18.21395905 15.99621015 18.29835981 8.93568001 18.375 1.875 C21.15323 0.31750743 22.20937848 -0.13493729 25.5 0.0625 C28.375 0.875 28.375 0.875 30.375 3.875 C30.64001465 6.46217346 30.64001465 6.46217346 30.66210938 9.59985352 C30.67552368 10.7743959 30.68893799 11.94893829 30.70275879 13.15907288 C30.70803589 14.42786789 30.71331299 15.6966629 30.71875 17.00390625 C30.74108747 18.99064093 30.76343563 20.97737556 30.78643036 22.96410275 C30.8318406 27.16343472 30.85968527 31.36291977 30.89068604 35.56237793 C30.91689298 39.02189328 30.94687749 42.48127362 30.98693848 45.94065857 C31.01615117 48.53697707 31.03645936 51.13341321 31.04724121 53.72987366 C31.06065552 54.90126389 31.07406982 56.07265411 31.08789062 57.27954102 C31.09518188 58.31417984 31.10247314 59.34881866 31.10998535 60.41481018 C31.1338747 63.05207955 31.1338747 63.05207955 33.375 64.875 C36.375 65.20833333 36.375 65.20833333 39.375 64.875 C42.02597932 62.22402068 41.62585596 60.99554531 41.63037109 57.29541016 C41.63733002 56.12724762 41.64428894 54.95908508 41.65145874 53.75552368 C41.65046173 52.48784149 41.64946472 51.2201593 41.6484375 49.9140625 C41.66353111 47.93215262 41.67864758 45.9502426 41.69512367 43.96834373 C41.73297175 39.07042121 41.75004709 34.17247091 41.75585938 29.27441406 C41.75990317 26.52890195 41.77445836 23.78381553 41.80020142 21.03842163 C41.82369881 18.44983522 41.83098432 15.8610418 41.82064819 13.27236938 C41.83391144 12.09790253 41.84717468 10.92343567 41.86083984 9.71337891 C41.86368988 8.6801651 41.86653992 7.64695129 41.86947632 6.58242798 C42.50995029 3.15224813 43.59598794 1.93579047 46.375 -0.125 C52.58928571 0.08928571 52.58928571 0.08928571 55.375 2.875 C55.69143677 4.7719574 55.69143677 4.7719574 55.78564453 7.11499023 C55.84548019 8.43423744 55.84548019 8.43423744 55.90652466 9.78013611 C55.93994965 10.73827713 55.97337463 11.69641815 56.0078125 12.68359375 C56.04937469 13.67891617 56.09093689 14.67423859 56.13375854 15.69972229 C56.22045209 17.82055082 56.30251525 19.94157279 56.38037109 22.06274414 C56.49736399 25.24089202 56.62815445 28.41821341 56.76171875 31.59570312 C57.15343668 41.23806687 57.46116709 50.88068447 57.52734375 60.53125 C57.53714264 61.29195297 57.54694153 62.05265594 57.55703735 62.83641052 C57.56434574 74.83176022 51.9184696 84.11544312 43.76953125 92.58203125 C42.03607095 94.29047769 40.28485245 95.98120305 38.51171875 97.6484375 C33.28754116 103.09227887 34.03107955 108.69100899 34.0625 115.875 C34.06378906 117.121604 34.06507813 118.36820801 34.06640625 119.65258789 C34.16148473 133.38828064 35.21561034 147.07682373 36.30737305 160.76367188 C36.72822352 166.1309705 37.08459418 171.49905203 37.375 176.875 C37.42817383 177.85478821 37.48134766 178.83457642 37.53613281 179.84405518 C37.67745541 182.824508 37.76846833 185.80236978 37.84375 188.78515625 C37.88834351 189.6924498 37.93293701 190.59974335 37.97888184 191.53453064 C38.05646742 197.33823842 36.97157389 200.36724824 32.96398926 204.60081482 C29.57861272 207.31549435 25.80113159 207.21011635 21.66015625 207.15625 C18.07907611 206.71550167 16.04460515 205.22679501 13.375 202.875 C10.15176991 198.67787178 9.96080086 194.98300811 10.09765625 189.87109375 C10.10861832 189.0861705 10.11958038 188.30124725 10.13087463 187.49253845 C10.30220792 178.86939923 10.93313726 170.27480179 11.60098267 161.67837524 C11.96359082 156.97964114 12.2983963 152.27893748 12.6328125 147.578125 C12.73143333 146.19401176 12.73143333 146.19401176 12.83204651 144.78193665 C13.38536966 136.92046422 13.85249479 129.06152053 14.1875 121.1875 C14.240271 120.13377197 14.29304199 119.08004395 14.34741211 117.99438477 C14.5899682 111.48102441 14.61724131 105.3110833 10.9296875 99.66015625 C10.37539063 99.09167969 9.82109375 98.52320313 9.25 97.9375 C8.63125 97.27621094 8.0125 96.61492187 7.375 95.93359375 C6.715 95.25425781 6.055 94.57492187 5.375 93.875 C-3.01237775 85.12226299 -8.7916493 76.73981003 -8.7578125 64.32421875 C-8.75931305 63.56549973 -8.7608136 62.8067807 -8.76235962 62.02507019 C-8.76472563 59.5374941 -8.75843705 57.05006182 -8.75 54.5625 C-8.74778442 53.71729797 -8.74556885 52.87209595 -8.74328613 52.00128174 C-8.72470979 45.95896782 -8.68003904 39.9170801 -8.625 33.875 C-8.6187561 33.09058533 -8.61251221 32.30617065 -8.6060791 31.49798584 C-8.56491778 26.5807811 -8.48202725 21.6662204 -8.375 16.75 C-8.36098145 15.50178467 -8.34696289 14.25356934 -8.33251953 12.9675293 C-8.30013184 11.8206665 -8.26774414 10.67380371 -8.234375 9.4921875 C-8.21342773 8.49815918 -8.19248047 7.50413086 -8.17089844 6.47998047 C-7.14399769 1.57969826 -4.91114087 -0.16934969 0 0 Z " fill="#000000" transform="translate(487.625,274.125)"/>
<path d="M0 0 C4.3725 0.825 8.745 1.65 13.25 2.5 C14.24 16.36 14.24 16.36 15.25 30.5 C13.27 30.5 11.29 30.5 9.25 30.5 C8.8375 29.345 8.425 28.19 8 27 C4.49634623 17.81912948 0.98408622 10.92865454 -8.375 6.6875 C-17.63670406 3.42875228 -26.69154084 3.5057188 -35.75 7.5 C-46.70516786 13.95476339 -52.89757376 24.65679902 -56.75 36.5 C-60.62657691 52.22840319 -59.63538288 71.04346473 -51.75 85.5 C-45.81368843 94.64676578 -38.24591153 102.52226322 -27.3671875 105.0546875 C-16.68899176 106.87157454 -6.52332986 105.016831 2.49609375 98.94921875 C7.19361401 95.06774878 9.68048432 90.35001301 11.25 84.5 C13.23 84.5 15.21 84.5 17.25 84.5 C16.32851884 89.51913141 15.32271214 94.51087655 14.25 99.5 C14.07984375 100.35851562 13.9096875 101.21703125 13.734375 102.1015625 C12.93942449 105.04287937 11.78078494 107.07559601 9.3984375 108.98046875 C-4.77878403 117.0648041 -24.32232926 117.30245543 -39.75 113.5 C-53.61207808 109.32997416 -64.56514213 101.39269556 -72.3203125 88.98828125 C-77.49234467 79.12425583 -79.28978449 69.84218419 -79.1875 58.75 C-79.17992676 57.60273437 -79.17235352 56.45546875 -79.16455078 55.2734375 C-78.8445333 38.79136911 -73.77543728 26.05352797 -62.421875 13.95703125 C-53.81153299 6.0390413 -44.19537198 1.05694481 -32.75 -1.5 C-31.88375 -1.6959375 -31.0175 -1.891875 -30.125 -2.09375 C-19.78942898 -3.33784651 -10.16003749 -1.9608364 0 0 Z " fill="#000000" transform="translate(414.75,536.5)"/>
<path d="M0 0 C11.58687744 10.01399815 19.85596875 22.34988024 21.27734375 37.92578125 C22.35911927 57.34975859 20.06644655 73.97306541 6.96484375 89.30078125 C-3.74344302 100.44245568 -17.04345781 106.80542038 -32.58325195 107.21850586 C-48.55053765 107.36609802 -62.54112939 102.83620681 -74.47265625 91.86328125 C-86.87082604 78.63105277 -90.91680128 62.66733199 -90.72265625 44.92578125 C-89.76770298 28.27486876 -83.59904782 14.29794669 -71.59765625 2.67578125 C-51.32544902 -14.25829237 -21.27973886 -16.21168054 0 0 Z M-59.72265625 5.92578125 C-68.61779917 18.2682386 -70.29580104 30.80392187 -70.16015625 45.67578125 C-70.15711487 46.38133148 -70.15407349 47.08688171 -70.15093994 47.81381226 C-70.04304452 64.71958566 -67.91761754 80.46498928 -55.84765625 93.36328125 C-48.97505489 99.78824191 -41.73889888 102.27344658 -32.44140625 102.13671875 C-22.47598838 101.36353978 -15.33028734 96.88984931 -8.53515625 89.80078125 C0.96366337 78.05019785 1.67233151 62.59967283 1.65234375 48.17578125 C1.65179993 47.51380737 1.6512561 46.8518335 1.6506958 46.1697998 C1.5963058 31.78038162 -0.1281781 19.86380312 -8.72265625 7.92578125 C-9.12355469 7.343125 -9.52445313 6.76046875 -9.9375 6.16015625 C-14.38945122 0.22422129 -20.69658583 -3.11627558 -27.72265625 -5.07421875 C-40.46496782 -6.37260595 -51.13407344 -3.96356203 -59.72265625 5.92578125 Z " fill="#000000" transform="translate(892.72265625,545.07421875)"/>
<path d="M0 0 C2.81767153 5.45442698 5.2400393 10.90786541 7.40625 16.6484375 C8.06472915 18.37029888 8.72326029 20.09214037 9.38183594 21.81396484 C9.72629761 22.71894714 10.07075928 23.62392944 10.42565918 24.55633545 C12.28645847 29.43837 14.16675679 34.31287919 16.046875 39.1875 C16.44263733 40.21370453 16.83839966 41.23990906 17.24615479 42.29721069 C21.59583376 53.56273398 25.98471702 64.81244348 30.43188477 76.03985596 C31.30695946 78.25400239 32.17792841 80.46977612 33.04467773 82.68719482 C34.26374181 85.80368453 35.49720269 88.91409986 36.734375 92.0234375 C37.09210999 92.94656738 37.44984497 93.86969727 37.81842041 94.82080078 C40.13796887 100.59082451 42.56427757 106.09326399 48.23828125 109.2421875 C48.92277344 109.45101562 49.60726562 109.65984375 50.3125 109.875 C52.1378125 110.431875 52.1378125 110.431875 54 111 C54 112.32 54 113.64 54 115 C39.48 115 24.96 115 10 115 C10 113.35 10 111.7 10 110 C13.96 109.01 13.96 109.01 18 108 C18.99444114 104.24211603 18.99066637 102.01751484 17.63671875 98.3828125 C17.32669922 97.52816406 17.01667969 96.67351562 16.69726562 95.79296875 C16.36404297 94.91253906 16.03082031 94.03210938 15.6875 93.125 C15.0437641 91.37826972 14.40180225 89.63088449 13.76171875 87.8828125 C13.3279895 86.72869873 13.3279895 86.72869873 12.88549805 85.55126953 C11.79496804 82.40926827 10.91368743 79.19790602 10 76 C-2.54 76.33 -15.08 76.66 -28 77 C-29.134375 80.114375 -30.26875 83.22875 -31.4375 86.4375 C-31.79384521 87.39970459 -32.15019043 88.36190918 -32.51733398 89.35327148 C-34.51714588 94.95812032 -35.67739737 100.04651504 -36 106 C-35.20700294 108.17038477 -35.20700294 108.17038477 -33.15234375 108.6328125 C-32.42144531 108.79523438 -31.69054687 108.95765625 -30.9375 109.125 C-30.20402344 109.29257812 -29.47054688 109.46015625 -28.71484375 109.6328125 C-27.86599609 109.81457031 -27.86599609 109.81457031 -27 110 C-27 111.65 -27 113.3 -27 115 C-37.56 115 -48.12 115 -59 115 C-58.67 113.35 -58.34 111.7 -58 110 C-56.33984375 109.67447917 -54.6796875 109.34895833 -53.01953125 109.0234375 C-47.65343662 106.30406266 -45.10596316 100.56731999 -43.01171875 95.234375 C-42.75156982 94.58034195 -42.4914209 93.9263089 -42.22338867 93.25245667 C-41.36670482 91.08926363 -40.52689569 88.91995388 -39.6875 86.75 C-39.08186594 85.20829056 -38.47548457 83.6668745 -37.8684082 82.12573242 C-35.89192972 77.09162895 -33.94300433 72.04710363 -32 67 C-31.6606543 66.11902649 -31.32130859 65.23805298 -30.97167969 64.3303833 C-24.91680151 48.5990209 -18.87984281 32.85863111 -13.05859375 17.0390625 C-12.63811768 15.90041748 -12.2176416 14.76177246 -11.78442383 13.58862305 C-11.03658337 11.55611584 -10.29505419 9.52126995 -9.5612793 7.48364258 C-9.24457275 6.62150146 -8.92786621 5.75936035 -8.6015625 4.87109375 C-8.20445068 3.77172485 -8.20445068 3.77172485 -7.79931641 2.65014648 C-6.1648962 -0.72402767 -3.32845157 -0.08759083 0 0 Z M-10 26 C-10.37809814 27.02359619 -10.75619629 28.04719238 -11.14575195 29.10180664 C-12.55848296 32.92490968 -13.97359604 36.74712741 -15.3894043 40.5690918 C-16.00007359 42.21859338 -16.61010976 43.86832951 -17.21948242 45.51831055 C-18.09905471 47.89955653 -18.98095371 50.27993001 -19.86328125 52.66015625 C-20.26659416 53.75433617 -20.26659416 53.75433617 -20.67805481 54.87062073 C-21.92907194 58.2391351 -23.22899056 61.55296694 -24.69604492 64.83374023 C-26.1904 67.89162009 -26.1904 67.89162009 -26 71 C-14.78 71 -3.56 71 8 71 C4.16370816 59.89924063 0.25694784 48.83008878 -3.8125 37.8125 C-4.19720459 36.75546875 -4.58190918 35.6984375 -4.97827148 34.609375 C-5.34251221 33.63097656 -5.70675293 32.65257812 -6.08203125 31.64453125 C-6.40405518 30.77159424 -6.7260791 29.89865723 -7.05786133 28.99926758 C-7.82939812 26.82761265 -7.82939812 26.82761265 -10 26 Z " fill="#000000" transform="translate(501,535)"/>
<path d="M0 0 C7.59838072 -0.0933739 15.1967007 -0.16410227 22.79552746 -0.20724869 C26.32540076 -0.22797466 29.85487675 -0.2560106 33.38452148 -0.30175781 C37.45820559 -0.35421564 41.5314835 -0.37306869 45.60546875 -0.390625 C46.8507988 -0.41127014 48.09612885 -0.43191528 49.37919617 -0.45318604 C60.98254544 -0.45610677 72.47089202 1.57194781 81 10 C86.49790692 15.99130882 88.51685335 22.74439944 88.24609375 30.8671875 C87.24020583 39.58488282 83.87014014 46.61001452 77.3359375 52.5 C73.21382945 55.66216508 68.90803429 57.36398857 64 59 C64.37769531 59.58523438 64.75539063 60.17046875 65.14453125 60.7734375 C68.99467963 66.77858696 72.73652861 72.83964218 76.4375 78.9375 C87.13004772 98.46196017 87.13004772 98.46196017 105 110 C104.67 111.65 104.34 113.3 104 115 C80.97046528 115.8511943 80.97046528 115.8511943 73.09472656 109.4519043 C67.19402341 103.78957493 63.37856777 97.43277814 59.4375 90.3125 C58.81681641 89.21744141 58.19613281 88.12238281 57.55664062 86.99414062 C55.68275058 83.67428745 53.83681304 80.3404952 52 77 C51.66800598 76.39992126 51.33601196 75.79984253 50.99395752 75.18157959 C50.00284487 73.38798753 49.01801975 71.59109206 48.03515625 69.79296875 C47.45258057 68.72973389 46.87000488 67.66649902 46.26977539 66.57104492 C45 64 45 64 45 62 C41.04 62 37.08 62 33 62 C33.06894972 67.60549826 33.15695228 73.21025579 33.26245117 78.81518555 C33.29565962 80.72102631 33.32370425 82.62696446 33.34643555 84.53295898 C33.38005668 87.27630015 33.43237595 90.01875222 33.48828125 92.76171875 C33.49467117 93.61086349 33.5010611 94.46000824 33.50764465 95.33488464 C33.62314409 100.00554567 33.93474726 103.22795354 37 107 C39.23837799 108.01674712 39.23837799 108.01674712 41.6875 108.3125 C42.49574219 108.45300781 43.30398437 108.59351563 44.13671875 108.73828125 C45.05904297 108.86783203 45.05904297 108.86783203 46 109 C46.33 110.65 46.66 112.3 47 114 C31.82 114 16.64 114 1 114 C1.33 112.35 1.66 110.7 2 109 C2.62648438 108.87882813 3.25296875 108.75765625 3.8984375 108.6328125 C4.71570313 108.46523438 5.53296875 108.29765625 6.375 108.125 C7.18710938 107.96257812 7.99921875 107.80015625 8.8359375 107.6328125 C11.18673923 107.13341068 11.18673923 107.13341068 13 105 C14.26950231 100.65346815 14.14792059 96.23065281 14.14526367 91.74072266 C14.14862228 90.92218307 14.1519809 90.10364349 14.15544128 89.26029968 C14.16491944 86.5615384 14.1668928 83.86283938 14.16796875 81.1640625 C14.17118343 79.28225682 14.17454767 77.4004514 14.17805481 75.51864624 C14.18403818 71.57622702 14.18589551 67.63382969 14.18530273 63.69140625 C14.18520114 58.64878949 14.1988541 53.60631362 14.21607494 48.56373024 C14.22721311 44.6774532 14.22922138 40.79121004 14.22869301 36.90491867 C14.22987035 35.04625335 14.23427831 33.18758708 14.24202538 31.32893753 C14.25186224 28.72521443 14.24893271 26.12179477 14.24291992 23.51806641 C14.24853943 22.75627579 14.25415894 21.99448517 14.25994873 21.20960999 C14.23212814 16.45001876 13.61750564 12.4934335 12 8 C10.26308835 6.58419508 10.26308835 6.58419508 8.125 6.125 C7.44695312 5.92132812 6.76890625 5.71765625 6.0703125 5.5078125 C5.38710937 5.34023438 4.70390625 5.17265625 4 5 C3.25492187 4.81179688 2.50984375 4.62359375 1.7421875 4.4296875 C1.16726562 4.28789063 0.59234375 4.14609375 0 4 C0 2.68 0 1.36 0 0 Z M34 6 C32.76919491 8.46161017 32.87956023 10.06496993 32.88647461 12.81689453 C32.88655014 13.81778107 32.88662567 14.8186676 32.88670349 15.84988403 C32.89186478 16.93325043 32.89702606 18.01661682 32.90234375 19.1328125 C32.9037587 20.23978485 32.90517365 21.3467572 32.90663147 22.48727417 C32.91224228 26.03320993 32.92479663 29.57908323 32.9375 33.125 C32.94251361 35.52473867 32.94707675 37.92447833 32.95117188 40.32421875 C32.96221522 46.21616725 32.9789639 52.10807916 33 58 C34.43741143 58.00709859 35.87483303 58.01215723 37.31225586 58.01635742 C38.5129496 58.02091194 38.5129496 58.02091194 39.73789978 58.02555847 C48.6109635 57.92530564 56.03885935 55.69536526 62.53125 49.55078125 C68.4780108 42.96439792 68.52497162 35.37226183 68.30859375 26.9921875 C67.91691763 20.09803769 65.8810028 14.42648854 60.875 9.5625 C53.58724798 4.05377096 42.32120626 1.46116022 34 6 Z " fill="#000000" transform="translate(113,536)"/>
<path d="M0 0 C27.06 0 54.12 0 82 0 C82.99 12.87 82.99 12.87 84 26 C82.02 26 80.04 26 78 26 C77.70867187 25.19175781 77.41734375 24.38351562 77.1171875 23.55078125 C74.15165407 15.81987807 72.03276198 11.51638099 64.5 7.75 C54.33129922 4.69938977 43.45763156 5.45467963 33 5 C33 20.51 33 36.02 33 52 C46.32185382 52.18339808 46.32185382 52.18339808 59.65625 47.62890625 C61.5578777 45.32373546 62.17901721 42.84186351 63 40 C64.98 40 66.96 40 69 40 C69 50.56 69 61.12 69 72 C67.35 72 65.7 72 64 72 C63.82984375 71.31292969 63.6596875 70.62585938 63.484375 69.91796875 C63.24203125 69.01691406 62.9996875 68.11585938 62.75 67.1875 C62.51796875 66.29417969 62.2859375 65.40085937 62.046875 64.48046875 C60.81191144 61.5543424 59.71730028 60.59049319 57 59 C51.40364117 57.34861543 45.98428683 56.7942198 40.17578125 56.4453125 C39.4837561 56.40156494 38.79173096 56.35781738 38.07873535 56.31274414 C36.38597414 56.206079 34.69300619 56.10270344 33 56 C33.11766731 62.62040996 33.24249748 69.24065705 33.37231445 75.86083984 C33.41563314 78.11308732 33.45731042 80.36536699 33.49731445 82.61767578 C33.55509103 85.85459089 33.61876452 89.09134442 33.68359375 92.328125 C33.70030624 93.33554749 33.71701874 94.34296997 33.73423767 95.38092041 C33.7641555 96.79193024 33.7641555 96.79193024 33.79467773 98.23144531 C33.81799416 99.47054657 33.81799416 99.47054657 33.84178162 100.73468018 C33.99552266 102.93589488 34.39397606 104.88279793 35 107 C40.01863751 108.30463533 45.03850861 108.22097115 50.1875 108.25 C51.08275391 108.270625 51.97800781 108.29125 52.90039062 108.3125 C60.69407963 108.3575177 67.63533385 107.09498081 74.3125 102.9375 C77.8881366 99.02924604 79.84714867 94.79711437 82 90 C82.66032724 88.66351575 83.32475313 87.32900861 84 86 C85.65 86 87.3 86 89 86 C88.52771628 95.65738773 86.92059058 104.3970471 85 114 C57.28 114 29.56 114 1 114 C1.33 112.35 1.66 110.7 2 109 C3.98567708 108.64192708 5.97135417 108.28385417 7.95703125 107.92578125 C10.98557868 106.55338022 11.59815724 105.0106613 13 102 C13.43641034 99.01552988 13.42027228 96.06269241 13.40405273 93.05053711 C13.41091599 92.15890366 13.41777924 91.2672702 13.42485046 90.34861755 C13.44311852 87.40802998 13.43928176 84.46797577 13.43359375 81.52734375 C13.43815476 79.48140794 13.4434601 77.43547367 13.44947815 75.38954163 C13.45840868 71.10492725 13.45598581 66.82049929 13.44604492 62.53588867 C13.43454131 57.04214925 13.45478854 51.54905124 13.48396206 46.05539608 C13.50229409 41.83207609 13.50203782 37.60891077 13.49632454 33.38556099 C13.49617103 31.35973776 13.50223952 29.33390425 13.51461601 27.30811882 C13.52947167 24.47835683 13.51888988 21.64979251 13.50170898 18.82006836 C13.51137695 17.98203674 13.52104492 17.14400513 13.53100586 16.28057861 C13.48446666 12.62538068 13.35007212 10.46446518 11.11610413 7.50050354 C8.77753375 5.8422519 7.06135174 5.2461209 4.25 4.75 C3.45078125 4.60046875 2.6515625 4.4509375 1.828125 4.296875 C1.22484375 4.19890625 0.6215625 4.1009375 0 4 C0 2.68 0 1.36 0 0 Z " fill="#000000" transform="translate(230,536)"/>
<path d="M0 0 C26.21816489 -2.07027421 26.21816489 -2.07027421 31.6640625 2.109375 C33.74254354 4.6814084 35.42861877 7.21578437 36.96289062 10.14355469 C38.86830002 13.55427339 41.36305802 16.54234339 43.75 19.625 C44.77075507 20.99291042 45.78893853 22.36274317 46.8046875 23.734375 C51.83052207 30.47490607 57.03171829 37.08023545 62.20898438 43.70458984 C64.00316378 46.00405478 65.79159158 48.30787214 67.578125 50.61328125 C73.77005896 58.60040923 79.99478125 66.5551025 86.35791016 74.40698242 C89.89514574 78.79029147 89.89514574 78.79029147 91 81 C91.06961416 72.36795 91.12286902 63.73599715 91.15543652 55.10372734 C91.17106997 51.09509211 91.19226548 47.08664943 91.22631836 43.078125 C91.25899512 39.20721681 91.27687047 35.33649343 91.28463173 31.46545792 C91.29016037 29.99111142 91.30095651 28.51677466 91.31719017 27.04250717 C91.33907587 24.97196614 91.34196241 22.90218169 91.34057617 20.83154297 C91.34723801 19.65461884 91.35389984 18.4776947 91.36076355 17.2651062 C90.95144825 13.56058029 89.94124545 11.16581706 88 8 C85.56378547 6.45088668 85.56378547 6.45088668 82.8125 5.625 C81.91144531 5.30789063 81.01039063 4.99078125 80.08203125 4.6640625 C79.05142578 4.33535156 79.05142578 4.33535156 78 4 C78 2.68 78 1.36 78 0 C89.55 0 101.1 0 113 0 C112.67 1.65 112.34 3.3 112 5 C110.9275 5.226875 109.855 5.45375 108.75 5.6875 C104.473607 7.18423755 103.4231931 8.2631991 101 12 C100.30296988 14.86634102 100.30296988 14.86634102 100.25610352 18.02392578 C100.20084503 19.26482971 100.14558655 20.50573364 100.08865356 21.78424072 C99.88626426 30.06175559 99.87880393 38.33774524 99.90234375 46.6171875 C99.90421324 48.57015954 99.90563463 50.52313206 99.90663147 52.47610474 C99.91041491 57.56900369 99.9202086 62.66187325 99.93133545 67.75476074 C99.94164024 72.9706177 99.94614835 78.1864795 99.95117188 83.40234375 C99.96183541 93.60157528 99.97886049 103.80078518 100 114 C93.21520996 114.15582275 93.21520996 114.15582275 91.27832031 112.75341797 C90.88225586 112.17221191 90.48619141 111.59100586 90.078125 110.9921875 C89.61575439 110.34209717 89.15338379 109.69200684 88.67700195 109.0222168 C88.20609131 108.31363525 87.73518066 107.60505371 87.25 106.875 C86.20866624 105.39858505 85.16566338 103.92334609 84.12109375 102.44921875 C83.60144043 101.7020459 83.08178711 100.95487305 82.54638672 100.18505859 C80.24395884 96.93170692 77.79180229 93.80698949 75.3125 90.6875 C74.85633301 90.10967773 74.40016602 89.53185547 73.93017578 88.93652344 C70.47904135 84.57444859 66.97033093 80.2610185 63.4375 75.96484375 C55.92332187 66.82500208 48.46409786 57.64579608 41.18652344 48.31616211 C36.92127378 42.86291405 32.54703377 37.50001616 28.15039062 32.15234375 C27.62380859 31.50910156 27.09722656 30.86585938 26.5546875 30.203125 C26.08530762 29.63239258 25.61592773 29.06166016 25.13232422 28.47363281 C24 27 24 27 23 25 C22.9304129 34.54474059 22.87714458 44.08939351 22.84456348 53.63433266 C22.82892421 58.0666972 22.8077178 62.49888786 22.77368164 66.93115234 C22.74102602 71.21054157 22.72313391 75.4897638 22.71536827 79.76926804 C22.70983588 81.39991254 22.6990324 83.03054817 22.68280983 84.66112137 C22.66095266 86.94957299 22.65803647 89.23733928 22.65942383 91.52587891 C22.65276199 92.82715729 22.64610016 94.12843567 22.63923645 95.46914673 C23.03391481 99.33192989 23.94587369 101.72243202 26 105 C29.5624487 107.24589157 32.84573781 108.38907909 37 109 C37 110.65 37 112.3 37 114 C25.45 114 13.9 114 2 114 C2 112.35 2 110.7 2 109 C3.0725 108.773125 4.145 108.54625 5.25 108.3125 C9.45192071 106.84182775 10.72735318 105.75860821 13 102 C14.15113245 97.76361676 14.14801048 93.558152 14.14526367 89.19970703 C14.14862228 88.4299353 14.1519809 87.66016357 14.15544128 86.86706543 C14.16491466 84.33063122 14.16689256 81.79426328 14.16796875 79.2578125 C14.17118378 77.48810804 14.17454803 75.71840385 14.17805481 73.94869995 C14.18403699 70.24167261 14.18589564 66.53466855 14.18530273 62.82763672 C14.18520115 58.08768704 14.19885368 53.34788727 14.21607494 48.6079731 C14.22721686 44.95331136 14.22922127 41.29868562 14.22869301 37.64400864 C14.2298698 35.89698647 14.23427466 34.14996328 14.24202538 32.40295792 C14.25186985 29.95489373 14.24892978 27.50715188 14.24291992 25.05908203 C14.25134918 23.98652664 14.25134918 23.98652664 14.25994873 22.89230347 C14.22473723 17.22143475 13.82108695 11.92514906 9.8125 7.6875 C6.52435756 5.71461454 3.72130123 4.87560029 0 4 C0 2.68 0 1.36 0 0 Z " fill="#000000" transform="translate(563,536)"/>
<path d="M0 0 C31.68 0 63.36 0 96 0 C97.125 7.875 97.125 7.875 97.31640625 11.83984375 C97.35830078 12.67451172 97.40019531 13.50917969 97.44335938 14.36914062 C97.48267578 15.21669922 97.52199219 16.06425781 97.5625 16.9375 C97.60568359 17.81212891 97.64886719 18.68675781 97.69335938 19.58789062 C97.79846901 21.72511995 97.89963985 23.86254238 98 26 C96.02 26 94.04 26 92 26 C91.65388672 25.00419922 91.65388672 25.00419922 91.30078125 23.98828125 C88.54510857 16.52727023 85.32504402 11.58661482 78 8 C74.42279467 7.21443643 70.82065499 6.75901938 67.1875 6.3125 C65.71893555 6.11817383 65.71893555 6.11817383 64.22070312 5.91992188 C61.81493629 5.60306478 59.40831136 5.29678437 57 5 C57.0843182 17.70863295 57.1791684 30.41713922 57.28752708 43.12559128 C57.33750817 49.02641186 57.38383816 54.92721438 57.421875 60.828125 C57.45870473 66.52106108 57.50505859 72.2138467 57.55806351 77.90665436 C57.57661971 80.08036921 57.59172312 82.25411634 57.60334396 84.42787933 C57.62018525 87.4686784 57.64921553 90.50913197 57.68115234 93.54980469 C57.68331253 94.45179596 57.68547272 95.35378723 57.68769836 96.28311157 C57.69886185 97.11319733 57.71002533 97.94328308 57.7215271 98.79852295 C57.72705786 99.51752148 57.73258862 100.23652 57.73828697 100.97730637 C58.04839256 103.37401012 58.69871538 104.96696859 60 107 C62.63571568 107.91956802 62.63571568 107.91956802 65.625 108.25 C66.62789062 108.39953125 67.63078125 108.5490625 68.6640625 108.703125 C69.43492187 108.80109375 70.20578125 108.8990625 71 109 C71 110.65 71 112.3 71 114 C55.82 114 40.64 114 25 114 C25 112.35 25 110.7 25 109 C25.69867187 108.90203125 26.39734375 108.8040625 27.1171875 108.703125 C28.02726563 108.55359375 28.93734375 108.4040625 29.875 108.25 C31.23238281 108.04117188 31.23238281 108.04117188 32.6171875 107.828125 C35.10854484 107.23951208 35.10854484 107.23951208 36.13152122 105.2108345 C37.04113711 102.89527972 37.25943066 101.27401383 37.2784729 98.79852295 C37.28963638 97.96843719 37.30079987 97.13835144 37.31230164 96.28311157 C37.31446182 95.3811203 37.31662201 94.47912903 37.31884766 93.54980469 C37.33391609 92.11515366 37.33391609 92.11515366 37.34928894 90.65151978 C37.38016818 87.49164427 37.39716939 84.33185368 37.4140625 81.171875 C37.43277032 78.98040026 37.45234344 76.78893275 37.4727478 74.59747314 C37.52411572 68.83044698 37.5637166 63.06339745 37.60089111 57.29626465 C37.64090148 51.41099241 37.69200737 45.52581776 37.7421875 39.640625 C37.83900201 28.09381851 37.92338919 16.54695697 38 5 C37.12166504 5.23638184 37.12166504 5.23638184 36.22558594 5.47753906 C33.62044706 6.08910084 31.02546003 6.30185049 28.36450195 6.54296875 C18.20096379 7.43957158 18.20096379 7.43957158 10 13 C7.38851958 17.12824935 5.54141085 21.37576744 4 26 C2.02 26 0.04 26 -2 26 C-1.86089513 22.41637224 -1.71254587 18.83318502 -1.5625 15.25 C-1.52318359 14.23421875 -1.48386719 13.2184375 -1.44335938 12.171875 C-1.40146484 11.1921875 -1.35957031 10.2125 -1.31640625 9.203125 C-1.27974854 8.30239258 -1.24309082 7.40166016 -1.20532227 6.47363281 C-1 4 -1 4 0 0 Z " fill="#000000" transform="translate(691,536)"/>
<path d="M0 0 C28.92307692 0 28.92307692 0 37 5 C38.2684375 5.7734375 38.2684375 5.7734375 39.5625 6.5625 C45.33635222 12.33635222 47.33805361 18.39171492 47.625 26.5 C47.30514479 35.06693272 44.99433028 41.46972514 38.75 47.4375 C26.32653451 55.92686808 15.72321334 53 0 53 C0 35.51 0 18.02 0 0 Z M9 8 C9 20.21 9 32.42 9 45 C22.0574141 46.05738633 22.0574141 46.05738633 33 41 C37.07067607 36.35367277 39.39830202 31.23225519 39 25 C37.86414212 19.0616553 35.92817244 14.72350807 31 11 C23.21446593 6.89490022 18.78181915 8 9 8 Z " fill="#000000" transform="translate(119,713)"/>
<path d="M0 0 C6.87961172 4.70269604 10.95860347 10.14505239 12.92578125 18.31640625 C14.05184163 27.20880057 12.56464009 33.89041555 7.60546875 41.28515625 C3.40388755 46.70358884 -1.67459907 49.18319969 -8.07421875 51.31640625 C-17.87282814 52.22617059 -25.19972661 50.53541049 -33.38671875 45.12890625 C-40.18021015 38.0194385 -42.43076564 30.76110267 -42.27734375 21.12109375 C-41.66420611 12.65507784 -37.29548071 6.9012781 -31.07421875 1.31640625 C-22.60032769 -4.86903674 -9.09491999 -4.91571005 0 0 Z M-29.88671875 12.37890625 C-33.82801483 17.67150384 -33.68539106 22.9340211 -33.07421875 29.31640625 C-31.50309374 34.9478483 -28.58371386 38.23555757 -23.7578125 41.40625 C-18.82172278 44.07471613 -13.21171573 44.24479217 -7.8828125 42.66796875 C-2.76382256 40.39502066 0.27382274 37.2219604 2.92578125 32.31640625 C4.79373458 26.71254627 4.66113992 20.60899504 2.86328125 15.00390625 C-0.02419852 10.99869238 -3.62663856 7.54019634 -8.07421875 5.31640625 C-17.59465913 4.5142697 -23.39073249 5.04118656 -29.88671875 12.37890625 Z " fill="#000000" transform="translate(224.07421875,715.68359375)"/>
<path d="M0 0 C-1.32 2.31 -2.64 4.62 -4 7 C-8.66712517 5.18500688 -8.66712517 5.18500688 -10.890625 3.94921875 C-14.50252063 2.32386572 -18.11907561 2.55137938 -22 3 C-24.63926464 3.91313108 -24.63926464 3.91313108 -26 6 C-26.58333333 9 -26.58333333 9 -26 12 C-23.04834858 15.68733325 -19.14125567 16.21013181 -14.75 17.3125 C-7.11948489 19.39274948 -2.00155065 21.37260942 2.5 28.3125 C3.46650275 33.50745228 3.01396785 38.17485786 0.4375 42.8125 C-6.31615681 48.87347406 -12.31374245 49.63779029 -21.359375 49.39453125 C-27.8102105 48.69546002 -33.09644984 46.26395666 -38 42 C-36.52307692 37.32307692 -36.52307692 37.32307692 -33.875 35.6875 C-33.25625 35.460625 -32.6375 35.23375 -32 35 C-31.29875 35.61875 -30.5975 36.2375 -29.875 36.875 C-24.45023477 40.88460908 -19.5545118 41.52019935 -13 41 C-10.01658383 40.06150487 -10.01658383 40.06150487 -8 38 C-6.75322994 35.10293293 -6.75322994 35.10293293 -7 32 C-10.23959828 27.54128973 -14.23708266 26.85563583 -19.3125 25.625 C-25.87831474 23.87402364 -30.4189134 22.26824959 -35 17 C-36.45320819 12.64037544 -36.81697376 8.44107823 -35.3515625 4.0625 C-32.98367458 -0.63279912 -29.8626977 -3.1003474 -25 -5 C-16.15950072 -7.38013442 -7.43856088 -4.95904059 0 0 Z " fill="#000000" transform="translate(314,718)"/>
<path d="M0 0 C1.77206192 0.00015919 3.54412846 0.00585754 5.31616211 0.01586914 C6.24698105 0.01728409 7.17779999 0.01869904 8.13682556 0.02015686 C11.12241777 0.02577367 14.10793615 0.03832899 17.09350586 0.05102539 C19.11238499 0.05603823 21.13126529 0.06060151 23.15014648 0.06469727 C28.11046158 0.07574856 33.07072118 0.09302444 38.03100586 0.11352539 C38.03100586 2.75352539 38.03100586 5.39352539 38.03100586 8.11352539 C32.42100586 8.11352539 26.81100586 8.11352539 21.03100586 8.11352539 C21.03100586 22.96352539 21.03100586 37.81352539 21.03100586 53.11352539 C18.06100586 53.11352539 15.09100586 53.11352539 12.03100586 53.11352539 C12.03100586 38.26352539 12.03100586 23.41352539 12.03100586 8.11352539 C6.42100586 8.11352539 0.81100586 8.11352539 -4.96899414 8.11352539 C-4.96899414 0.14212845 -4.96899414 0.14212845 0 0 Z " fill="#000000" transform="translate(334.968994140625,712.886474609375)"/>
<path d="M0 0 C30.35443038 1.16747809 30.35443038 1.16747809 36.4375 7.5625 C39.39778379 12.18054272 39.6582274 16.66104444 39 22 C36.77313259 26.37125825 34.07979065 29.28013956 30 32 C29.01 32 28.02 32 27 32 C27.41886475 32.56509277 27.83772949 33.13018555 28.26928711 33.71240234 C30.16028764 36.26542376 32.04892064 38.8201871 33.9375 41.375 C34.59685547 42.26445313 35.25621094 43.15390625 35.93554688 44.0703125 C36.56396484 44.92109375 37.19238281 45.771875 37.83984375 46.6484375 C38.42113037 47.43395996 39.00241699 48.21948242 39.60131836 49.02880859 C41 51 41 51 42 53 C38.20169691 53.54913683 34.78178346 53.73688689 31 53 C28.02759569 50.49272056 26.28902078 47.41709992 24.375 44.0625 C23.38968815 42.37027822 22.37721116 40.6935299 21.3359375 39.03515625 C20.90845215 38.2862915 20.4809668 37.53742676 20.04052734 36.76586914 C17.3057783 34.06205249 17.3057783 34.06205249 9 34 C9 40.27 9 46.54 9 53 C6.03 53 3.06 53 0 53 C0 35.51 0 18.02 0 0 Z M9 8 C9 14.27 9 20.54 9 27 C17.04828822 27.29808475 22.10742645 27.15649907 28.9375 22.75 C30.76882526 19.73369958 30.47257466 17.42616627 30 14 C27.45862841 10.84045695 25.85377341 9.28459114 22 8 C17.66328697 7.86498403 13.33988266 7.95703086 9 8 Z " fill="#000000" transform="translate(391,713)"/>
<path d="M0 0 C6.23616844 4.63625257 10.05908759 10.38469139 11.58984375 18.0859375 C12.65830487 26.08252548 11.84451777 32.52615782 7.23046875 39.2578125 C1.52750071 46.1518429 -3.95303197 49.80861321 -12.86328125 50.91796875 C-21.66205675 51.30101403 -29.19804046 49.38056252 -35.7890625 43.36328125 C-42.32855445 36.01988013 -43.65270493 28.97295289 -43.359375 19.21484375 C-42.50633773 12.19599321 -39.73896671 6.94432649 -34.6015625 2.11328125 C-24.72179886 -5.32287348 -10.74780986 -6.33799419 0 0 Z M-31.25390625 11.08984375 C-34.73791046 16.32204936 -35.52814277 22.58068092 -34.578125 28.72265625 C-32.83954898 34.54801486 -28.81048176 38.14500576 -23.9140625 41.55078125 C-18.55027117 43.33871169 -13.02633912 43.24133322 -7.6640625 41.48828125 C-2.79966654 38.06109319 1.67582994 33.47323299 3.0859375 27.55078125 C3.88982908 21.03172294 2.92649674 15.94165798 -0.9140625 10.55078125 C-5.31188138 5.92331125 -9.28540504 4.38605026 -15.6015625 4.17578125 C-22.40092124 4.24977669 -26.76757274 5.93644607 -31.25390625 11.08984375 Z " fill="#000000" transform="translate(491.9140625,716.44921875)"/>
<path d="M0 0 C2.45568161 1.72338194 4.13473377 3.70664171 5.7421875 6.22265625 C4.11878945 7.9314963 2.44899697 9.59712342 0.7421875 11.22265625 C0.0821875 11.22265625 -0.5778125 11.22265625 -1.2578125 11.22265625 C-2.59114583 9.88932292 -3.92447917 8.55598958 -5.2578125 7.22265625 C-11.50673781 5.13968115 -18.83411773 5.11711127 -24.8203125 7.84765625 C-29.72197572 12.62363579 -31.90381336 16.68266487 -32.5703125 23.34765625 C-32.15633716 28.48095049 -30.8101083 32.74247953 -28.2578125 37.22265625 C-22.99104932 41.62953972 -18.44781783 42.59924294 -11.76171875 42.4921875 C-7.93187698 42.07992684 -6.0318289 40.86457663 -3.2578125 38.22265625 C-1.68346855 35.64466804 -0.4091936 33.0130622 0.7421875 30.22265625 C-0.1859375 30.47015625 -0.1859375 30.47015625 -1.1328125 30.72265625 C-5.51251979 31.42340942 -9.83210239 31.29999876 -14.2578125 31.22265625 C-14.2578125 28.58265625 -14.2578125 25.94265625 -14.2578125 23.22265625 C-6.3378125 23.22265625 1.5821875 23.22265625 9.7421875 23.22265625 C9.7421875 31.56147679 9.5899591 37.58584794 4.19921875 44.08203125 C-2.47424881 50.25155274 -9.42408054 51.77376891 -18.36328125 51.50390625 C-25.6894505 50.79205175 -31.41997753 47.80205716 -36.2578125 42.22265625 C-41.1013438 35.08877294 -42.99386397 27.57946437 -42 18.99609375 C-40.22642937 10.64418844 -36.07094413 5.03707475 -29.2578125 0.22265625 C-20.8863299 -5.00952037 -8.62123306 -4.53834721 0 0 Z " fill="#000000" transform="translate(564.2578125,715.77734375)"/>
<path d="M0 0 C6.54239945 4.89195748 10.64509627 10.52137735 12.15234375 18.609375 C13.20481301 26.83179111 11.31869386 33.70996344 6.83203125 40.65234375 C2.644335 46.01854469 -2.49772964 48.4927328 -8.84765625 50.609375 C-19.25162457 51.41086589 -26.792676 49.91200213 -35.01953125 43.41796875 C-40.57059646 37.9262098 -42.92674193 31.0505195 -43.09765625 23.359375 C-42.9265996 14.74952372 -40.04061232 8.74600859 -34.0625 2.5625 C-24.81776208 -5.58982621 -10.55296221 -6.2510059 0 0 Z M-30.09765625 11.046875 C-33.79948032 16.46740311 -34.5586486 21.14378833 -33.84765625 27.609375 C-31.81082713 34.04146696 -28.69076185 37.73550995 -23.09765625 41.421875 C-17.37934711 43.51125719 -12.21205811 43.50449997 -6.59765625 41.046875 C-1.55298223 38.22749631 1.34840403 34.02119416 3.15234375 28.609375 C3.85051771 21.42161681 3.56893253 16.42067602 -0.84765625 10.609375 C-6.6531553 4.92235553 -10.65667221 4.25770425 -18.640625 4.328125 C-24.06142204 4.80351768 -26.5409534 7.19378025 -30.09765625 11.046875 Z " fill="#000000" transform="translate(633.84765625,716.390625)"/>
<path d="M0 0 C7.1211219 1.01730313 8.48752455 1.73427247 12.4375 6.9375 C12.90921631 7.52724609 13.38093262 8.11699219 13.86694336 8.72460938 C14.81870265 9.91798526 15.76262553 11.117657 16.69824219 12.32373047 C18.44970303 14.57908121 20.260076 16.78528063 22.0625 19 C26.75735463 24.96172017 31.37327276 30.98525459 36 37 C36.33 24.79 36.66 12.58 37 0 C39.64 0 42.28 0 45 0 C45 17.49 45 34.98 45 53 C37 53 37 53 34.70703125 51.15625 C34.08183594 50.2796875 33.45664062 49.403125 32.8125 48.5 C31.70068359 47.00919922 31.70068359 47.00919922 30.56640625 45.48828125 C29.9633667 44.65804443 29.9633667 44.65804443 29.34814453 43.81103516 C26.7667046 40.34324786 23.9902299 37.03009302 21.25 33.6875 C19.66088317 31.72934209 18.07305048 29.77015718 16.48632812 27.81005859 C15.05305061 26.06460533 13.58346708 24.35549396 12.109375 22.64453125 C10 20 10 20 10 18 C9.34 18 8.68 18 8 18 C8.33 29.55 8.66 41.1 9 53 C6.03 53 3.06 53 0 53 C0 35.51 0 18.02 0 0 Z " fill="#000000" transform="translate(666,713)"/>
<path d="M0 0 C6.02592366 4.51670866 10.69889817 10.09948668 12.15234375 17.61328125 C13.22455271 27.41059065 11.42989547 34.65254516 5.40234375 42.42578125 C1.0526499 47.19605619 -5.22738466 50.30741343 -11.66796875 50.8515625 C-20.88124493 51.05848005 -26.5211198 49.52537309 -34.09765625 44.42578125 C-39.95052035 38.43989751 -42.93173721 31.75706502 -43.16015625 23.42578125 C-43.04629053 14.86307942 -39.64652745 8.50535382 -33.8046875 2.34375 C-24.6900574 -5.71569339 -10.32375881 -6.09806053 0 0 Z M-30.09765625 11.05078125 C-33.97994911 16.73556723 -34.66516883 21.82482239 -33.84765625 28.61328125 C-32.22017918 34.22661535 -29.36416716 37.52782308 -24.53125 40.703125 C-19.59516028 43.37159113 -13.98515323 43.54166717 -8.65625 41.96484375 C-3.53726006 39.69189566 -0.49961476 36.5188354 2.15234375 31.61328125 C4.02029708 26.00942127 3.88770242 19.90587004 2.08984375 14.30078125 C-0.79763602 10.29556738 -4.40007606 6.83707134 -8.84765625 4.61328125 C-17.9847812 3.84344061 -23.66821898 4.08555754 -30.09765625 11.05078125 Z " fill="#000000" transform="translate(773.84765625,716.38671875)"/>
<path d="M0 0 C1.51815699 0.00015911 3.0363194 0.00585313 4.55444336 0.01586914 C5.35208603 0.01728409 6.1497287 0.01869904 6.97154236 0.02015686 C9.52916146 0.02577223 12.08669429 0.03832727 14.64428711 0.05102539 C16.37410356 0.05603841 18.10392137 0.06060166 19.83374023 0.06469727 C24.08312264 0.07574664 28.33244023 0.09302153 32.58178711 0.11352539 C32.58178711 2.75352539 32.58178711 5.39352539 32.58178711 8.11352539 C23.34178711 8.11352539 14.10178711 8.11352539 4.58178711 8.11352539 C4.58178711 13.39352539 4.58178711 18.67352539 4.58178711 24.11352539 C12.83178711 24.11352539 21.08178711 24.11352539 29.58178711 24.11352539 C29.58178711 26.75352539 29.58178711 29.39352539 29.58178711 32.11352539 C21.33178711 32.11352539 13.08178711 32.11352539 4.58178711 32.11352539 C4.58178711 39.04352539 4.58178711 45.97352539 4.58178711 53.11352539 C1.61178711 53.11352539 -1.35821289 53.11352539 -4.41821289 53.11352539 C-4.44347982 45.72624437 -4.46104449 38.33897441 -4.47314453 30.95166016 C-4.47818652 28.43635644 -4.48501992 25.92105567 -4.49365234 23.40576172 C-4.50572383 19.79922764 -4.51144238 16.19273217 -4.51586914 12.58618164 C-4.52103043 11.4539064 -4.52619171 10.32163116 -4.5315094 9.15504456 C-4.53158493 8.11404099 -4.53166046 7.07303741 -4.53173828 6.00048828 C-4.53395889 5.07893448 -4.5361795 4.15738068 -4.53846741 3.207901 C-4.33474885 -0.3401003 -3.67727487 0.12212933 0 0 Z " fill="#000000" transform="translate(811.418212890625,712.886474609375)"/>
<path d="M0 0 C11.88 0 23.76 0 36 0 C37 2 37 2 37 8 C27.76 8 18.52 8 9 8 C9 13.28 9 18.56 9 24 C16.92 24 24.84 24 33 24 C33 26.64 33 29.28 33 32 C25.08 32 17.16 32 9 32 C9 38.93 9 45.86 9 53 C6.03 53 3.06 53 0 53 C0 35.51 0 18.02 0 0 Z " fill="#000000" transform="translate(865,713)"/>
</svg>
